<?xml version="1.0" encoding="UTF-8" standalone="no"?><!DOCTYPE svg PUBLIC "-//W3C//DTD SVG 1.1//EN" "http://www.w3.org/Graphics/SVG/1.1/DTD/svg11.dtd"><svg width="100%" height="100%" viewBox="0 0 1537 1115" version="1.1" xmlns="http://www.w3.org/2000/svg" xmlns:xlink="http://www.w3.org/1999/xlink" xml:space="preserve" xmlns:serif="http://www.serif.com/" style="fill-rule:evenodd;clip-rule:evenodd;stroke-linejoin:round;stroke-miterlimit:2;"><rect id="Artboard1" x="0" y="0" width="1536.1" height="1114.6" style="fill:none;"/><g><path d="M330.616,24.677c7.292,6.042 11.583,14.958 12.833,26.75c1.875,17.375 -4.416,33.042 -18.916,47.083c-19.584,18.959 -33.5,32.125 -41.709,39.5c-9.458,8.542 -22.416,22.625 -38.833,42.209c-32.417,38.708 -61.375,87.541 -86.917,146.458c-30.875,71.208 -47.75,144.417 -50.666,219.583c-5.209,133.584 50.125,277.667 133.166,382.834c24,30.375 61.834,64.458 86.375,89.625c6.375,6.541 11.209,13.708 14.542,21.5c8,18.666 1.333,41.208 -14.25,51.791c-36.708,24.792 -81.792,-16.958 -106.333,-41c-52.917,-51.875 -94.625,-107.791 -125.125,-167.708c-9.792,-19.208 -20.084,-41.25 -30.875,-66.167c-33.042,-76.25 -50.25,-158.333 -52.917,-240.083c-1.792,-54.792 4.667,-112.25 19.417,-172.458c31.041,-126.417 94.833,-245.542 187.458,-337.792c24.542,-24.458 75.417,-73 112.75,-42.125Z" style="fill-rule:nonzero;"/><path d="M1157.45,286.927c9.125,1.375 20.042,2.042 32.667,1.958c113.625,-0.875 182.625,-0.958 206.958,-0.333c25.084,0.625 48.5,8.667 70.25,24.125c36.167,25.667 55.5,60.417 58,104.292c0.792,13.75 0.709,34.333 -0.25,61.75c-1.833,52 -1.583,97.791 0.959,154c1,22.5 0.25,44.166 -2.25,64.958c-7.959,65.5 -58.417,111.25 -121.834,120.667c-15.333,2.291 -33.5,3.5 -54.541,3.625c-65.667,0.416 -122.959,0.083 -171.917,-1.042c-25,-0.583 -32,8.25 -53.125,26.083c-137.458,115.959 -221.667,186.084 -252.625,210.292c-39.5,30.833 -100.5,41 -145.417,18.542c-46.541,-23.292 -72.958,-71.25 -73.791,-123.334c-0.209,-13.541 0.291,-53.291 1.458,-119.208c1.458,-78.542 -1.542,-169.125 -1.542,-253.458c0,-149.25 0.25,-282.292 0.709,-399.167c0.041,-17.625 -0.667,-47.667 4.583,-66.375c14.542,-51.417 58.125,-92.333 113.417,-96.542c26.625,-2.041 51.208,2.625 73.833,13.959c7.875,3.958 20.958,13.5 39.25,28.708c71.875,59.792 160.25,133.792 265.167,222c2.875,2.417 6.333,3.958 10.041,4.5Zm-52,449.125c0.542,-2.625 0.792,-5.792 0.792,-9.542c-0.583,-93.25 -0.667,-207.833 -0.25,-343.75c0.042,-8.166 -2.042,-13.208 -7.917,-18.416c-11.791,-10.459 -24.166,-21 -37.125,-31.625c-79.833,-65.667 -164.041,-136.625 -252.583,-212.875c-16.458,-14.167 -33.125,-15.75 -50.083,-4.792c-4.834,3.125 -8.542,7.208 -11.084,12.25c-3.083,6.083 -4.625,11.375 -4.625,15.917c0.25,381.541 0.334,649.208 0.209,803.083c-0,15.083 1.25,24.875 3.791,29.333c9.709,17.209 22.542,24.5 38.542,21.834c7.292,-1.209 20.292,-9.709 39.083,-25.417c89.959,-75.5 181.917,-151.208 275.834,-227.167c2.791,-2.25 4.708,-5.375 5.416,-8.833Zm92.459,-352.25l1.166,339.5c0,1.875 1.542,3.417 3.459,3.417l180.791,-0.667c29.042,-0.083 52.542,-23.833 52.417,-53l-0.833,-240.667c-0.125,-29.166 -23.75,-52.75 -52.792,-52.625l-180.792,0.625c-1.916,0 -3.416,1.542 -3.416,3.417Z" style="fill-rule:nonzero;"/><path d="M459.741,922.135c-27.958,19.292 -57.375,6.292 -81.417,-13.708c-87.625,-72.917 -137.958,-179.875 -151.125,-293.708c-5.333,-45.959 -4.25,-89.375 3.209,-130.334c17.916,-98 62.375,-194.083 136.291,-263.458c18.042,-16.917 48.084,-37 72.417,-33.208c41.333,6.416 45.625,55.166 20.167,80.958c-24.042,24.417 -64.042,56.333 -85.5,95.667c-27.417,50.208 -48.167,106.125 -52.959,163.708c-3.75,44.917 -1.583,96.542 13.042,138.083c18.792,53.459 44.917,108.875 87,150.042c8.375,8.167 19.25,15.583 29.625,23.708c26.833,21.125 33,49.209 12.917,78.542c-1,1.417 -2.25,2.708 -3.667,3.708Z" style="fill-rule:nonzero;"/><path d="M551.574,357.677c34,8.542 44.709,43.042 26.417,71.458c-2.292,3.542 -10,14.834 -23.125,33.875c-20.625,29.917 -35.25,64.209 -35.667,100.209c-0.375,32.458 9.042,62.541 28.25,90.333c9.584,13.875 30.375,33.292 35.375,49.125c17.042,53.708 -27.291,86.292 -73,51.917c-20.75,-15.584 -38.166,-36 -52.25,-61.292c-32.416,-58.125 -41.625,-119.208 -27.666,-183.167c11.625,-53.083 35.291,-97.083 71,-132c12.5,-12.25 27.875,-19.166 46.125,-20.791c1.5,-0.125 3.041,-0.042 4.541,0.333Z" style="fill-rule:nonzero;"/></g></svg>